<svg width="423" height="448" xmlns="http://www.w3.org/2000/svg" xmlns:xlink="http://www.w3.org/1999/xlink" overflow="hidden"><defs><clipPath id="clip0"><rect x="700" y="67" width="423" height="448"/></clipPath></defs><g clip-path="url(#clip0)" transform="translate(-700 -67)"><path d="M1063 422.572C1063 439.929 1048.93 454 1031.57 454L867.428 454C850.071 454 836 439.929 836 422.572L836 234.428C836 217.071 850.071 203 867.428 203L1031.57 203C1048.93 203 1063 217.071 1063 234.428Z" fill="#D9302C" fill-rule="evenodd"/><path d="M987 345.436C987 363.973 971.973 379 953.436 379L793.564 379C775.027 379 760 363.973 760 345.436L760 160.564C760 142.027 775.027 127 793.564 127L953.436 127C971.973 127 987 142.027 987 160.564Z" fill="#EAA23F" fill-rule="evenodd"/><path d="M953.045 379 836 379 836 236.955C836 218.202 851.202 203 869.955 203L987 203 987 345.045C987 363.798 971.798 379 953.045 379Z" fill="#EC692D" fill-rule="evenodd"/></g></svg>