<svg width="1490" height="560" xmlns="http://www.w3.org/2000/svg" xmlns:xlink="http://www.w3.org/1999/xlink" overflow="hidden"><defs><clipPath id="clip0"><rect x="247" y="80" width="1490" height="560"/></clipPath></defs><g clip-path="url(#clip0)" transform="translate(-247 -80)"><path d="M664 494.572C664 511.929 649.929 526 632.572 526L468.428 526C451.071 526 437 511.929 437 494.572L437 305.428C437 288.071 451.071 274 468.428 274L632.572 274C649.929 274 664 288.071 664 305.428Z" fill="#D9302C" fill-rule="evenodd"/><path d="M589 416.436C589 434.973 573.973 450 555.436 450L395.564 450C377.027 450 362 434.973 362 416.436L362 232.564C362 214.027 377.027 199 395.564 199L555.436 199C573.973 199 589 214.027 589 232.564Z" fill="#EAA23F" fill-rule="evenodd"/><path d="M554.82 450 437 450 437 308.18C437 289.303 452.303 274 471.18 274L589 274 589 415.82C589 434.697 573.697 450 554.82 450Z" fill="#EC692D" fill-rule="evenodd"/><text font-family="Cera Pro,Cera Pro_MSFontService,sans-serif" font-weight="700" font-size="221" transform="translate(767.05 439)">Swappy</text></g></svg>